<mxfile host="Electron" agent="Mozilla/5.0 (Windows NT 10.0; Win64; x64) AppleWebKit/537.36 (KHTML, like Gecko) draw.io/28.0.6 Chrome/138.0.7204.100 Electron/37.2.3 Safari/537.36" version="28.0.6">
  <diagram name="Page-1" id="yoMIYRCsywAks_YMM_2B">
    <mxGraphModel dx="786" dy="516" grid="0" gridSize="10" guides="1" tooltips="1" connect="1" arrows="1" fold="1" page="1" pageScale="1" pageWidth="850" pageHeight="1100" math="0" shadow="0">
      <root>
        <mxCell id="0" />
        <mxCell id="1" parent="0" />
        <mxCell id="vv7toFQoOP1ZbUznBxJa-31" value="" style="edgeStyle=orthogonalEdgeStyle;rounded=0;orthogonalLoop=1;jettySize=auto;html=1;" parent="1" source="vv7toFQoOP1ZbUznBxJa-8" target="vv7toFQoOP1ZbUznBxJa-17" edge="1">
          <mxGeometry relative="1" as="geometry" />
        </mxCell>
        <mxCell id="vv7toFQoOP1ZbUznBxJa-8" value="&lt;div&gt;Customer website&lt;/div&gt;" style="image;aspect=fixed;perimeter=ellipsePerimeter;html=1;align=center;shadow=0;dashed=0;spacingTop=3;image=img/lib/active_directory/home_page.svg;" parent="1" vertex="1">
          <mxGeometry x="135" y="180" width="72.22" height="65" as="geometry" />
        </mxCell>
        <mxCell id="vv7toFQoOP1ZbUznBxJa-16" value="User&lt;div&gt;&lt;br&gt;&lt;/div&gt;" style="image;aspect=fixed;perimeter=ellipsePerimeter;html=1;align=center;shadow=0;dashed=0;spacingTop=3;image=img/lib/active_directory/user.svg;" parent="1" vertex="1">
          <mxGeometry x="38" y="182" width="18.5" height="50" as="geometry" />
        </mxCell>
        <mxCell id="0XvgkQEXZee6cVqThMQY-19" style="edgeStyle=orthogonalEdgeStyle;rounded=0;orthogonalLoop=1;jettySize=auto;html=1;" edge="1" parent="1" target="vv7toFQoOP1ZbUznBxJa-26">
          <mxGeometry relative="1" as="geometry">
            <mxPoint x="359.5299999999999" y="212.5" as="sourcePoint" />
          </mxGeometry>
        </mxCell>
        <mxCell id="0XvgkQEXZee6cVqThMQY-20" style="edgeStyle=orthogonalEdgeStyle;rounded=0;orthogonalLoop=1;jettySize=auto;html=1;exitX=1;exitY=0.75;exitDx=0;exitDy=0;entryX=0.5;entryY=0;entryDx=0;entryDy=0;" edge="1" parent="1" target="vv7toFQoOP1ZbUznBxJa-39">
          <mxGeometry relative="1" as="geometry">
            <mxPoint x="353.9963308705159" y="241.34004882748127" as="sourcePoint" />
          </mxGeometry>
        </mxCell>
        <mxCell id="0XvgkQEXZee6cVqThMQY-32" style="edgeStyle=orthogonalEdgeStyle;rounded=0;orthogonalLoop=1;jettySize=auto;html=1;exitX=0;exitY=0.5;exitDx=0;exitDy=0;entryX=1;entryY=0.5;entryDx=0;entryDy=0;" edge="1" parent="1" source="vv7toFQoOP1ZbUznBxJa-17" target="vv7toFQoOP1ZbUznBxJa-8">
          <mxGeometry relative="1" as="geometry" />
        </mxCell>
        <mxCell id="vv7toFQoOP1ZbUznBxJa-17" value="&lt;div&gt;Load Balancer&lt;/div&gt;&lt;div&gt;&lt;br&gt;&lt;/div&gt;" style="image;aspect=fixed;perimeter=ellipsePerimeter;html=1;align=center;shadow=0;dashed=0;spacingTop=3;image=img/lib/active_directory/windows_server.svg;" parent="1" vertex="1">
          <mxGeometry x="262" y="147.5" width="106.6" height="130" as="geometry" />
        </mxCell>
        <mxCell id="vv7toFQoOP1ZbUznBxJa-26" value="Web Server&lt;div&gt;&lt;br&gt;&lt;/div&gt;" style="image;aspect=fixed;perimeter=ellipsePerimeter;html=1;align=center;shadow=0;dashed=0;spacingTop=3;image=img/lib/active_directory/generic_server.svg;" parent="1" vertex="1">
          <mxGeometry x="452.93" y="20.75" width="61.32" height="109.5" as="geometry" />
        </mxCell>
        <mxCell id="vv7toFQoOP1ZbUznBxJa-39" value="Web Server&lt;div&gt;&lt;br&gt;&lt;/div&gt;" style="image;aspect=fixed;perimeter=ellipsePerimeter;html=1;align=center;shadow=0;dashed=0;spacingTop=3;image=img/lib/active_directory/generic_server.svg;" parent="1" vertex="1">
          <mxGeometry x="452.93" y="310" width="61.32" height="109.5" as="geometry" />
        </mxCell>
        <mxCell id="0XvgkQEXZee6cVqThMQY-6" value="" style="edgeStyle=orthogonalEdgeStyle;rounded=0;orthogonalLoop=1;jettySize=auto;html=1;" edge="1" parent="1" source="vv7toFQoOP1ZbUznBxJa-43" target="0XvgkQEXZee6cVqThMQY-4">
          <mxGeometry relative="1" as="geometry" />
        </mxCell>
        <mxCell id="0XvgkQEXZee6cVqThMQY-9" style="edgeStyle=orthogonalEdgeStyle;rounded=0;orthogonalLoop=1;jettySize=auto;html=1;" edge="1" parent="1" source="vv7toFQoOP1ZbUznBxJa-43" target="0XvgkQEXZee6cVqThMQY-41">
          <mxGeometry relative="1" as="geometry">
            <mxPoint x="650" y="166" as="targetPoint" />
          </mxGeometry>
        </mxCell>
        <mxCell id="vv7toFQoOP1ZbUznBxJa-43" value="&lt;div&gt;UserDB&lt;/div&gt;" style="image;aspect=fixed;perimeter=ellipsePerimeter;html=1;align=center;shadow=0;dashed=0;spacingTop=3;image=img/lib/active_directory/database.svg;" parent="1" vertex="1">
          <mxGeometry x="710" y="90" width="50" height="37" as="geometry" />
        </mxCell>
        <mxCell id="0XvgkQEXZee6cVqThMQY-1" style="edgeStyle=orthogonalEdgeStyle;rounded=0;orthogonalLoop=1;jettySize=auto;html=1;exitX=1;exitY=0.5;exitDx=0;exitDy=0;entryX=0;entryY=0.41;entryDx=0;entryDy=0;entryPerimeter=0;" edge="1" parent="1" source="vv7toFQoOP1ZbUznBxJa-16" target="vv7toFQoOP1ZbUznBxJa-8">
          <mxGeometry relative="1" as="geometry" />
        </mxCell>
        <mxCell id="0XvgkQEXZee6cVqThMQY-7" value="" style="edgeStyle=orthogonalEdgeStyle;rounded=0;orthogonalLoop=1;jettySize=auto;html=1;" edge="1" parent="1" source="0XvgkQEXZee6cVqThMQY-4" target="0XvgkQEXZee6cVqThMQY-5">
          <mxGeometry relative="1" as="geometry" />
        </mxCell>
        <mxCell id="0XvgkQEXZee6cVqThMQY-39" style="edgeStyle=orthogonalEdgeStyle;rounded=0;orthogonalLoop=1;jettySize=auto;html=1;" edge="1" parent="1" source="0XvgkQEXZee6cVqThMQY-4">
          <mxGeometry relative="1" as="geometry">
            <mxPoint x="735" y="121.99998474121094" as="targetPoint" />
          </mxGeometry>
        </mxCell>
        <mxCell id="0XvgkQEXZee6cVqThMQY-4" value="&lt;div&gt;MovieDB&lt;/div&gt;" style="image;aspect=fixed;perimeter=ellipsePerimeter;html=1;align=center;shadow=0;dashed=0;spacingTop=3;image=img/lib/active_directory/database.svg;" vertex="1" parent="1">
          <mxGeometry x="710" y="208" width="50" height="37" as="geometry" />
        </mxCell>
        <mxCell id="0XvgkQEXZee6cVqThMQY-37" style="edgeStyle=orthogonalEdgeStyle;rounded=0;orthogonalLoop=1;jettySize=auto;html=1;" edge="1" parent="1" source="0XvgkQEXZee6cVqThMQY-5" target="0XvgkQEXZee6cVqThMQY-35">
          <mxGeometry relative="1" as="geometry" />
        </mxCell>
        <mxCell id="0XvgkQEXZee6cVqThMQY-38" style="edgeStyle=orthogonalEdgeStyle;rounded=0;orthogonalLoop=1;jettySize=auto;html=1;entryX=0.5;entryY=1;entryDx=0;entryDy=0;" edge="1" parent="1" source="0XvgkQEXZee6cVqThMQY-5" target="0XvgkQEXZee6cVqThMQY-4">
          <mxGeometry relative="1" as="geometry" />
        </mxCell>
        <mxCell id="0XvgkQEXZee6cVqThMQY-5" value="&lt;div&gt;SeatDB&lt;/div&gt;" style="image;aspect=fixed;perimeter=ellipsePerimeter;html=1;align=center;shadow=0;dashed=0;spacingTop=3;image=img/lib/active_directory/database.svg;" vertex="1" parent="1">
          <mxGeometry x="710" y="330" width="50" height="37" as="geometry" />
        </mxCell>
        <mxCell id="0XvgkQEXZee6cVqThMQY-21" style="edgeStyle=orthogonalEdgeStyle;rounded=0;orthogonalLoop=1;jettySize=auto;html=1;exitX=0;exitY=0.5;exitDx=0;exitDy=0;entryX=1.001;entryY=0.881;entryDx=0;entryDy=0;entryPerimeter=0;" edge="1" parent="1" source="vv7toFQoOP1ZbUznBxJa-39">
          <mxGeometry relative="1" as="geometry">
            <mxPoint x="359.6366" y="262.03" as="targetPoint" />
          </mxGeometry>
        </mxCell>
        <mxCell id="0XvgkQEXZee6cVqThMQY-22" style="edgeStyle=orthogonalEdgeStyle;rounded=0;orthogonalLoop=1;jettySize=auto;html=1;entryX=1.001;entryY=0.342;entryDx=0;entryDy=0;entryPerimeter=0;" edge="1" parent="1" source="vv7toFQoOP1ZbUznBxJa-26">
          <mxGeometry relative="1" as="geometry">
            <mxPoint x="359.6366" y="191.96000000000004" as="targetPoint" />
          </mxGeometry>
        </mxCell>
        <mxCell id="0XvgkQEXZee6cVqThMQY-29" value="" style="endArrow=classic;startArrow=classic;html=1;rounded=0;exitX=1;exitY=0.75;exitDx=0;exitDy=0;entryX=0;entryY=0.25;entryDx=0;entryDy=0;" edge="1" parent="1" source="vv7toFQoOP1ZbUznBxJa-26" target="0XvgkQEXZee6cVqThMQY-41">
          <mxGeometry width="50" height="50" relative="1" as="geometry">
            <mxPoint x="540" y="258" as="sourcePoint" />
            <mxPoint x="595" y="187" as="targetPoint" />
          </mxGeometry>
        </mxCell>
        <mxCell id="0XvgkQEXZee6cVqThMQY-30" value="" style="endArrow=classic;startArrow=classic;html=1;rounded=0;exitX=1;exitY=0.5;exitDx=0;exitDy=0;entryX=-0.005;entryY=0.658;entryDx=0;entryDy=0;entryPerimeter=0;" edge="1" parent="1" source="vv7toFQoOP1ZbUznBxJa-39" target="0XvgkQEXZee6cVqThMQY-41">
          <mxGeometry width="50" height="50" relative="1" as="geometry">
            <mxPoint x="460" y="340" as="sourcePoint" />
            <mxPoint x="611" y="276" as="targetPoint" />
          </mxGeometry>
        </mxCell>
        <mxCell id="0XvgkQEXZee6cVqThMQY-34" value="" style="endArrow=classic;html=1;rounded=0;" edge="1" parent="1">
          <mxGeometry width="50" height="50" relative="1" as="geometry">
            <mxPoint x="651" y="109" as="sourcePoint" />
            <mxPoint x="716" y="108.5" as="targetPoint" />
          </mxGeometry>
        </mxCell>
        <mxCell id="0XvgkQEXZee6cVqThMQY-36" style="edgeStyle=orthogonalEdgeStyle;rounded=0;orthogonalLoop=1;jettySize=auto;html=1;entryX=0.5;entryY=1;entryDx=0;entryDy=0;" edge="1" parent="1" source="0XvgkQEXZee6cVqThMQY-35" target="0XvgkQEXZee6cVqThMQY-5">
          <mxGeometry relative="1" as="geometry" />
        </mxCell>
        <mxCell id="0XvgkQEXZee6cVqThMQY-40" style="edgeStyle=orthogonalEdgeStyle;rounded=0;orthogonalLoop=1;jettySize=auto;html=1;" edge="1" parent="1" source="0XvgkQEXZee6cVqThMQY-35">
          <mxGeometry relative="1" as="geometry">
            <mxPoint x="651" y="347" as="targetPoint" />
          </mxGeometry>
        </mxCell>
        <mxCell id="0XvgkQEXZee6cVqThMQY-35" value="&lt;div&gt;PaymentDB&lt;/div&gt;" style="image;aspect=fixed;perimeter=ellipsePerimeter;html=1;align=center;shadow=0;dashed=0;spacingTop=3;image=img/lib/active_directory/database.svg;" vertex="1" parent="1">
          <mxGeometry x="706.62" y="419.5" width="56.76" height="42" as="geometry" />
        </mxCell>
        <mxCell id="0XvgkQEXZee6cVqThMQY-41" value="&lt;div&gt;Management&lt;/div&gt;&lt;div&gt;Server&lt;/div&gt;" style="image;aspect=fixed;perimeter=ellipsePerimeter;html=1;align=center;shadow=0;dashed=0;spacingTop=3;image=img/lib/active_directory/generic_server.svg;" vertex="1" parent="1">
          <mxGeometry x="621" y="192" width="61.32" height="109.5" as="geometry" />
        </mxCell>
      </root>
    </mxGraphModel>
  </diagram>
</mxfile>
